<?xml version="1.0" encoding="UTF-8"?>
<svg version="1.1" xmlns="http://www.w3.org/2000/svg" width="512" height="512">
<path d="M0 0 C1.91541581 -0.00461239 3.83082808 -0.01096757 5.74623299 -0.01890898 C10.99476045 -0.03557893 16.2429963 -0.02736644 21.4915247 -0.0149641 C27.15759806 -0.00590644 32.82362162 -0.01988692 38.48968506 -0.03088379 C49.58362662 -0.04866589 60.6774599 -0.04483036 71.7714057 -0.03323323 C80.78806287 -0.02419799 89.8046897 -0.0229753 98.8213501 -0.02732849 C100.10487558 -0.02794142 101.38840107 -0.02855436 102.71082127 -0.02918586 C105.31831663 -0.03046477 107.92581198 -0.03176162 110.53330731 -0.03307623 C134.28425756 -0.04415604 158.03514224 -0.03266781 181.78608206 -0.01170584 C203.45816835 0.00727596 225.13016062 0.00557742 246.80224609 -0.0135498 C271.16286163 -0.0349781 295.5234132 -0.0433825 319.88403893 -0.03110075 C322.48191706 -0.02982656 325.07979519 -0.02856908 327.67767334 -0.02732849 C329.59495859 -0.02640284 329.59495859 -0.02640284 331.55097687 -0.02545848 C340.55631595 -0.02200547 349.56162166 -0.02783292 358.56695557 -0.0372467 C369.54215057 -0.04846755 380.51723114 -0.04542471 391.49241304 -0.02412373 C397.0916222 -0.0136146 402.6906406 -0.00948934 408.28984833 -0.02272034 C413.41701119 -0.03465261 418.54380673 -0.02806759 423.67093635 -0.00681013 C425.52409686 -0.00234766 427.37728849 -0.00460234 429.23042893 -0.01431328 C441.7136468 -0.07470279 451.97181541 0.56618136 461.49169922 9.50793457 C466.85000032 15.60449049 469.36882033 21.92271735 469.3837328 29.96975136 C469.38819064 31.08623515 469.39264848 32.20271894 469.39724141 33.35303557 C469.39696487 35.19298191 469.39696487 35.19298191 469.39668274 37.07009888 C469.40035943 38.37319767 469.40403612 39.67629647 469.40782422 41.01888311 C469.41783651 44.63904474 469.42155977 48.25918979 469.42421353 51.8793633 C469.42811887 55.7827317 469.43769705 59.68608699 469.44642639 63.58944702 C469.4661843 73.01764335 469.47625616 82.44584073 469.48515418 91.87405258 C469.48953818 96.3148026 469.4949047 100.75555143 469.50014305 105.19630051 C469.51715465 119.95979629 469.53164863 134.72329134 469.53889179 149.48679543 C469.54080166 153.31757229 469.542722 157.14834914 469.54467773 160.97912598 C469.54516147 161.93123759 469.54564521 162.88334921 469.54614361 163.86431269 C469.55444319 179.28647202 469.57977919 194.70855376 469.61225841 210.13067921 C469.64533752 225.96684947 469.66334132 241.80298032 469.66653603 257.63918531 C469.66870034 266.52957239 469.67743738 275.41984634 469.70299721 284.31019974 C469.72471583 291.88193975 469.73274892 299.45353915 469.72303043 307.02530678 C469.71848907 310.8868415 469.72036208 314.74808615 469.73979187 318.60958099 C469.76070015 322.80121363 469.75042759 326.99220442 469.73725891 331.18386841 C469.75371278 333.00373825 469.75371278 333.00373825 469.77049905 334.86037314 C469.6971162 344.54222641 467.69742186 352.75499543 460.95263672 359.97668457 C454.38594627 365.88068148 447.35392473 368.76244391 438.49172974 368.7484436 C437.51011267 368.75100688 437.51011267 368.75100688 436.50866497 368.75362194 C434.32988171 368.7568994 432.15141083 368.74594231 429.97265625 368.73498535 C428.40528877 368.73442086 426.83792076 368.73473854 425.27055359 368.73587036 C421.02512996 368.73644339 416.77981971 368.72469713 412.5344224 368.71072245 C408.09415165 368.69820681 403.6538782 368.69704393 399.21359253 368.69467163 C390.80955828 368.68845932 382.40557617 368.67205185 374.00156486 368.65197265 C364.4320867 368.62960593 354.86260603 368.61861827 345.29310822 368.60858178 C325.61188031 368.58768541 305.9306993 368.55251424 286.24951172 368.50793457 C286.38699263 369.1836639 286.52447353 369.85939323 286.66612053 370.55559921 C286.93651492 371.8939501 286.93651492 371.8939501 287.21237183 373.25933838 C287.48046819 374.58230738 287.48046819 374.58230738 287.75398064 375.93200302 C288.41564535 379.37155114 288.88297061 382.79754904 289.31982422 386.27355957 C289.4057785 386.95545349 289.49173279 387.63734741 289.58029175 388.33990479 C289.758464 389.76124874 289.9348202 391.18282151 290.109375 392.60461426 C290.37580425 394.76843193 290.65018748 396.93114224 290.92529297 399.09387207 C291.09894404 400.48704224 291.27213738 401.88026955 291.44482422 403.27355957 C291.59967285 404.51911621 291.75452148 405.76467285 291.9140625 407.04797363 C292.22255616 410.22990391 292.31255693 413.31405195 292.24951172 416.50793457 C293.00570801 416.49222412 293.7619043 416.47651367 294.54101562 416.46032715 C297.98543748 416.3977541 301.42973946 416.35887252 304.87451172 416.32043457 C306.65921875 416.28272949 306.65921875 416.28272949 308.47998047 416.2442627 C319.61637285 416.15094097 319.61637285 416.15094097 324.24951172 419.50793457 C325.79538048 422.59967209 325.54310693 425.10223009 325.24951172 428.50793457 C323.77087402 430.70275116 323.77087402 430.70275116 321.24951172 432.50793457 C318.24234634 432.90065775 315.60200173 433.04834748 312.59521484 433.01586914 C311.27125072 433.02522908 311.27125072 433.02522908 309.92053986 433.03477812 C306.95701036 433.05075853 303.99429761 433.0380841 301.03076172 433.0255127 C298.90860513 433.03093156 296.78645231 433.03805289 294.66430664 433.04675293 C288.89577037 433.06501707 283.12751966 433.05790589 277.35897827 433.04523659 C271.32834084 433.03512498 265.29772821 433.04449715 259.26708984 433.05078125 C249.13878988 433.05806301 239.01060649 433.04845603 228.88232422 433.02941895 C217.16475329 433.00764928 205.44746073 433.01470027 193.72989655 433.03672457 C183.67800764 433.05486346 173.62620265 433.05744427 163.57430267 433.04696989 C157.56698543 433.04072667 151.55979912 433.03992214 145.55249023 433.05311584 C139.90535419 433.06465167 134.25857781 433.05668989 128.61148071 433.03353882 C126.53618976 433.02823962 124.46086865 433.02978609 122.3855896 433.03858948 C119.55791752 433.04948065 116.73140621 433.03585923 113.90380859 433.01586914 C112.66471111 433.02925347 112.66471111 433.02925347 111.40058136 433.04290819 C107.8266334 432.9937206 105.67625607 432.81621969 102.73986816 430.69493866 C100.55000499 427.48145256 100.70740946 425.30265036 101.24951172 421.50793457 C103.46814201 418.60076384 104.768961 417.66811814 108.24951172 416.50793457 C110.24154202 416.42501504 112.23624885 416.4005528 114.22998047 416.41027832 C115.39335937 416.41350098 116.55673828 416.41672363 117.75537109 416.42004395 C118.9703125 416.42842285 120.18525391 416.43680176 121.43701172 416.44543457 C122.66355469 416.44994629 123.89009766 416.45445801 125.15380859 416.45910645 C128.1857584 416.47090392 131.21761078 416.48736536 134.24951172 416.50793457 C134.32298828 415.28348633 134.32298828 415.28348633 134.39794922 414.03430176 C134.96843763 405.27287839 135.87092936 396.59722177 136.97900391 387.88977051 C137.25446679 385.71888433 137.521807 383.54709224 137.78857422 381.37512207 C137.9625786 379.98704164 138.13703977 378.59901837 138.31201172 377.21105957 C138.46798828 375.97001465 138.62396484 374.72896973 138.78466797 373.45031738 C139.24951172 370.50793457 139.24951172 370.50793457 140.24951172 368.50793457 C139.43836442 368.51162174 138.62721712 368.51530891 137.7914896 368.51910782 C118.03528185 368.60752628 98.2791083 368.67367699 78.52274418 368.71518326 C68.96862231 368.73578999 59.41463268 368.76387442 49.8605957 368.80969238 C41.53124556 368.84961805 33.20199122 368.87538112 24.87254804 368.88428855 C20.46398934 368.88949361 16.05570466 368.90168784 11.64723396 368.9308548 C7.49315792 368.95811457 3.33946736 368.96635837 -0.81468964 368.9603653 C-2.33479727 368.96146083 -3.85491853 368.9693518 -5.3749485 368.98475647 C-13.58722627 369.06386292 -20.53528148 368.82627987 -27.75048828 364.50793457 C-28.54841797 364.06191895 -29.34634766 363.61590332 -30.16845703 363.15637207 C-36.46624237 358.62419101 -41.20978687 352.22246312 -42.75048828 344.50793457 C-42.84449119 342.68581332 -42.88487629 340.86062342 -42.89029598 339.03608704 C-42.89598722 337.91735325 -42.90167847 336.79861946 -42.90754217 335.64598465 C-42.90872205 334.41682705 -42.90990192 333.18766945 -42.91111755 331.92126465 C-42.91620537 330.61549343 -42.92129319 329.30972221 -42.92653519 327.96438217 C-42.94043432 324.33668503 -42.94802291 320.70899792 -42.95450819 317.08128095 C-42.96088218 313.9703752 -42.97095189 310.8594859 -42.98106884 307.74859041 C-43.01438379 297.49894667 -43.03591325 287.24929293 -43.05426869 276.99961281 C-43.05906478 274.33003843 -43.06404797 271.66046446 -43.06907392 268.9908905 C-43.10004753 252.40778399 -43.12672869 235.82467396 -43.1434927 219.24154663 C-43.1474421 215.40081781 -43.15144511 211.56008905 -43.15551758 207.71936035 C-43.15652594 206.76478274 -43.1575343 205.81020513 -43.15857322 204.82670093 C-43.17557259 189.37028448 -43.21667395 173.91402834 -43.26754057 158.45769012 C-43.31935315 142.58309183 -43.34843979 126.7085759 -43.35568959 110.83389378 C-43.36034737 101.92325556 -43.37505159 93.01287982 -43.41543388 84.10232544 C-43.44979174 76.51193654 -43.46365001 68.92185751 -43.45100974 61.33139533 C-43.44519614 57.46137031 -43.44895369 53.59200012 -43.47917938 49.72207451 C-43.5117474 45.51776162 -43.49734531 41.31487138 -43.47874451 37.11047363 C-43.49553944 35.89916181 -43.51233436 34.68784998 -43.52963823 33.43983173 C-43.42766701 24.18996572 -40.96978571 16.52344544 -34.94180959 9.35794449 C-24.85882649 -0.25077851 -13.11238838 -0.06871235 0 0 Z M-25.12548828 23.38293457 C-27.58372156 28.11030626 -27.874752 32.70234235 -27.88191605 37.9687624 C-27.88575719 39.03411065 -27.88959834 40.09945891 -27.89355588 41.19709045 C-27.8926894 42.3563226 -27.89182292 43.51555476 -27.89093018 44.70991516 C-27.8939013 45.95009154 -27.89687242 47.19026791 -27.89993358 48.46802539 C-27.90709977 51.90318756 -27.90979179 55.33829971 -27.91053104 58.77346575 C-27.91238577 62.48113921 -27.91993512 66.18880191 -27.92666626 69.89646912 C-27.94023201 77.99976397 -27.9462713 86.10305387 -27.95067692 94.20635819 C-27.95344181 99.26760033 -27.95767957 104.32884056 -27.96218109 109.39008141 C-27.97437051 123.40820222 -27.98467109 137.42632152 -27.98805618 151.44444752 C-27.98827575 152.34112655 -27.98849532 153.23780559 -27.98872153 154.16165672 C-27.98893981 155.06045317 -27.98915809 155.95924963 -27.98938298 156.88528234 C-27.98982645 158.70652123 -27.99027301 160.52776013 -27.99072266 162.34899902 C-27.99094409 163.25239211 -27.99116552 164.1557852 -27.99139366 165.08655383 C-27.99534223 179.72679771 -28.01279952 194.36699183 -28.03608218 209.00721649 C-28.05980302 224.0445269 -28.07225833 239.08181234 -28.0734241 254.11914176 C-28.07434035 262.55952045 -28.08008012 270.99983427 -28.09824371 279.44019508 C-28.11365445 286.62652653 -28.11875935 293.81277305 -28.11050561 300.99911789 C-28.10660281 304.66404582 -28.10751057 308.32880275 -28.12156296 311.99370956 C-28.13667297 315.97088089 -28.12842457 319.94781246 -28.11798096 323.92500305 C-28.12603736 325.07754304 -28.13409377 326.23008303 -28.1423943 327.41754848 C-28.09400362 335.2980842 -27.4766211 342.22259502 -22.31298828 348.44543457 C-17.59496934 352.24286445 -14.11800897 352.79972962 -8.12788773 352.76799679 C-7.35239397 352.77180246 -6.57690022 352.77560813 -5.77790666 352.77952912 C-3.16382158 352.78988443 -0.54995207 352.7859315 2.06414795 352.78208923 C3.95105936 352.7865395 5.8379689 352.79185285 7.72487569 352.79795796 C12.92232851 352.81217375 18.11972164 352.81380057 23.31719112 352.81336105 C28.91788413 352.81500611 34.51855231 352.82806678 40.11923218 352.83955383 C52.37120749 352.86242706 64.6231655 352.87032692 76.87515926 352.87538028 C84.52239936 352.87863455 92.1696344 352.88515538 99.81687164 352.89238167 C120.98154436 352.91195049 142.14621223 352.92843438 163.31089401 352.9312582 C163.9879782 352.93135226 164.66506239 352.93144632 165.36266428 352.93154324 C168.10663363 352.93192172 170.85060298 352.93228572 173.59457234 352.93264621 C175.65989067 352.93291793 177.72520901 352.93319461 179.79052734 352.93347168 C180.81421785 352.93360371 180.81421785 352.93360371 181.85858897 352.93373842 C203.3014371 352.9366438 224.74419508 352.9587384 246.18701172 352.99499512 C270.27215009 353.03571848 294.35721045 353.05939715 318.44239163 353.05971771 C331.19704291 353.06030291 343.95157817 353.06883515 356.70619965 353.09771538 C367.56595179 353.12219159 378.42554562 353.12953754 389.28531787 353.11446785 C394.82758188 353.10728365 400.36953302 353.10822162 405.91176224 353.13087845 C410.98483415 353.15141891 416.05735167 353.14891407 421.13041726 353.1280036 C422.96623281 353.12449927 424.80208797 353.12945847 426.63785157 353.14370804 C439.38565694 353.48536848 439.38565694 353.48536848 450.24951172 347.50793457 C453.6046224 342.31292448 454.37346776 337.25920396 454.37814617 331.16736126 C454.38137062 330.10338735 454.38459506 329.03941345 454.38791722 327.94319791 C454.38636862 326.78037079 454.38482002 325.61754367 454.38322449 324.41947937 C454.38549004 323.17945185 454.3877556 321.93942434 454.39008981 320.66182023 C454.39532649 317.22246615 454.39607444 313.78316433 454.39489543 310.34380996 C454.39469138 306.63341324 454.40021065 302.92302432 454.404953 299.21263123 C454.41325915 291.94413186 454.41600783 284.6756406 454.41656538 277.40713688 C454.41704057 271.49866556 454.41909547 265.59019692 454.42226601 259.68172646 C454.43107258 242.92918251 454.43568539 226.17664497 454.43493553 209.42409869 C454.43489558 208.52098084 454.43485562 207.61786299 454.43481445 206.68737793 C454.43477357 205.78315703 454.43473269 204.87893613 454.43469057 203.9473146 C454.43428413 189.29341048 454.44385322 174.63953205 454.45795282 159.98563536 C454.4723168 144.93819148 454.47922299 129.89076013 454.47835904 114.84330922 C454.47802708 106.3956982 454.48077408 97.94811411 454.49153709 89.50050926 C454.50064239 82.30791524 454.50281711 75.11536036 454.49602767 67.92276307 C454.49276258 64.25395208 454.49270537 60.5852162 454.50138092 56.91641235 C454.5106948 52.93668702 454.50446954 48.95707137 454.49674988 44.9773407 C454.50446522 43.24313827 454.50446522 43.24313827 454.51233643 41.47390145 C454.48190011 34.38040027 454.34747798 27.87966606 450.49951172 21.69543457 C445.68233743 17.01207067 440.89728817 16.0663586 434.37802219 16.12761784 C433.59992116 16.12295792 432.82182012 16.118298 432.02014026 16.11349687 C429.40913445 16.10153254 426.79864762 16.11094775 424.18763733 16.12025452 C422.29828605 16.11608223 420.40893728 16.1106053 418.51959318 16.10393471 C413.32469298 16.08944762 408.129951 16.09373502 402.93504202 16.10110152 C397.33371901 16.1058228 391.73243073 16.09333258 386.13111877 16.08308411 C375.15663507 16.06587051 364.18220856 16.06506138 353.20771486 16.07029701 C344.28962359 16.07433507 335.37154925 16.07289948 326.45345879 16.06754875 C325.18517734 16.06680033 323.91689589 16.06605191 322.61018167 16.06528081 C320.03384499 16.06374936 317.45750831 16.06221102 314.88117164 16.06066584 C297.57812949 16.05083409 280.27509724 16.04667649 262.97205448 16.05429173 C262.29537711 16.0545889 261.61869973 16.05488607 260.92151698 16.05519225 C255.42632532 16.05764122 249.93113373 16.06025279 244.43594215 16.06287638 C222.99950134 16.07297947 201.56313886 16.06462262 180.12670898 16.04138184 C156.04486035 16.01531523 131.96307037 16.00250918 107.88120264 16.00956959 C95.12943143 16.01306648 82.37772455 16.01079873 69.62596321 15.99331856 C58.77099746 15.97862335 47.91614134 15.97792604 37.0611778 15.99538947 C31.52109624 16.00392381 25.98121075 16.00598966 20.44113922 15.99073792 C15.37134151 15.9769534 10.30190898 15.98157343 5.23213273 16.00097715 C3.39639995 16.00475667 1.56063836 16.00175937 -0.27506887 15.9913655 C-2.76820709 15.9782511 -5.26007452 15.98972853 -7.75315762 16.00736332 C-8.46784365 15.99771281 -9.18252968 15.9880623 -9.91887286 15.97811934 C-16.50717926 16.07397116 -20.91741148 18.28894686 -25.12548828 23.38293457 Z M156.24951172 368.50793457 C154.55309541 379.49424971 152.95078895 390.47837166 151.56201172 401.50793457 C151.43076904 402.5398291 151.29952637 403.57172363 151.16430664 404.6348877 C151.04418213 405.60361816 150.92405762 406.57234863 150.80029297 407.57043457 C150.69370361 408.42766113 150.58711426 409.2848877 150.47729492 410.16809082 C150.18491724 412.77964704 150.18491724 412.77964704 150.24951172 416.50793457 C191.82951172 416.50793457 233.40951172 416.50793457 276.24951172 416.50793457 C274.61462472 399.98781829 274.61462472 399.98781829 272.68701172 383.50793457 C272.49848633 381.97652832 272.49848633 381.97652832 272.30615234 380.41418457 C272.18304688 379.43449707 272.05994141 378.45480957 271.93310547 377.44543457 C271.82538818 376.58820801 271.7176709 375.73098145 271.60668945 374.84777832 C271.24149231 372.21133233 271.24149231 372.21133233 270.24951172 368.50793457 C261.33951172 368.50793457 252.42951172 368.50793457 243.24951172 368.50793457 C242.71326172 370.79730957 242.17701172 373.08668457 241.62451172 375.44543457 C239.35012682 384.32157385 235.89807104 391.24090504 228.15576172 396.53527832 C220.61638694 400.3822134 211.71221144 400.97045186 203.55029297 398.78527832 C194.37735666 394.93856309 190.07671723 389.50703942 186.24951172 380.50793457 C185.25951172 376.54793457 184.26951172 372.58793457 183.24951172 368.50793457 C174.33951172 368.50793457 165.42951172 368.50793457 156.24951172 368.50793457 Z M199.24951172 368.50793457 C201.56163072 377.75429089 201.56163072 377.75429089 207.24951172 383.50793457 C210.48015022 385.12325382 213.74783029 384.93911176 217.24951172 384.50793457 C221.0770677 382.96219081 222.74829136 381.57575186 224.50732422 377.82824707 C226.41266815 373.28928798 226.41266815 373.28928798 227.24951172 368.50793457 C218.00951172 368.50793457 208.76951172 368.50793457 199.24951172 368.50793457 Z " fill="#000000" transform="translate(42.75048828125,39.4920654296875)"/>
<path d="M0 0 C2.83146041 1.22323978 5.31978144 2.84496213 7.875 4.5625 C8.57463867 5.01778076 9.27427734 5.47306152 9.99511719 5.94213867 C24.8864489 15.74024833 24.8864489 15.74024833 29 22 C29 22.66 29 23.32 29 24 C29.89982448 23.9927292 30.79964895 23.98545839 31.72674084 23.97796726 C41.09211198 23.93559318 50.41611067 24.19303751 59.77270508 24.62670898 C61.28575411 24.69433123 62.79881608 24.76166452 64.31188965 24.82873535 C68.37160545 25.00956888 72.43112024 25.19458329 76.49060273 25.38057208 C80.76322671 25.57574591 85.03600562 25.76747382 89.3087616 25.95973206 C96.47442389 26.28270334 103.63995761 26.60841494 110.80541992 26.93579102 C119.06747136 27.31323411 127.32971182 27.68629755 135.59206659 28.05703682 C143.57719144 28.41543887 151.56217289 28.77694542 159.54709435 29.13984871 C162.92995498 29.29354121 166.31286137 29.44616255 169.69581032 29.59789848 C173.68102393 29.77678819 177.66610407 29.95841265 181.65110016 30.14208221 C183.10623382 30.20872289 184.56140952 30.27445346 186.01663017 30.33916664 C207.84334749 31.31151636 207.84334749 31.31151636 211.625 33.5625 C215.62104031 40.64638964 211.84714299 50.96147844 210.33203125 58.4296875 C210.05228459 59.82914085 209.77280435 61.22864748 209.49357605 62.62820435 C208.9079881 65.55258167 208.31617607 68.47561931 207.72045898 71.39794922 C206.96358992 75.11553587 206.22696117 78.83681031 205.4956255 82.55949211 C204.92468403 85.44941234 204.34051368 88.33654566 203.7527523 91.22308731 C203.47593587 92.5926911 203.20362342 93.96321423 202.93619728 95.33468246 C201.00619018 105.19105574 198.76527646 115.54128214 190.8125 122.375 C190.13832031 122.98085937 189.46414063 123.58671875 188.76953125 124.2109375 C181.680974 128.79000551 174.13989876 130.63613899 165.84716797 131.53979492 C164.88629776 131.65581558 163.92542755 131.77183624 162.93544006 131.89137268 C159.78910791 132.26780747 156.6408882 132.62443786 153.4921875 132.98046875 C151.28023686 133.24031069 149.06841609 133.50126038 146.85671997 133.76325989 C142.22963671 134.30854756 137.60163175 134.84479903 132.97265625 135.3737793 C127.08102685 136.04715183 121.1913773 136.73620925 115.3022747 137.43130016 C109.63707029 138.09918443 103.97090451 138.75874079 98.3046875 139.41796875 C97.24411007 139.54211843 96.18353264 139.66626812 95.0908165 139.79417992 C93.02762951 140.03470254 90.96412902 140.27255361 88.90030098 140.50751209 C86.94640914 140.73168347 84.99344549 140.96412687 83.04160881 141.20553875 C78.73213195 141.71393188 74.61658554 142.06340691 70.27886963 141.81900024 C66.22875031 141.63457845 62.8772392 141.58574378 59 143 C54.94230903 147.52463386 52.94179809 153.33429307 51 159 C52.08310093 159.00081715 52.08310093 159.00081715 53.1880827 159.00165081 C70.75662764 159.01661733 88.32489085 159.05905872 105.89329052 159.13209057 C114.3892574 159.16674556 122.88506194 159.19209675 131.38110352 159.19555664 C138.78617287 159.19859584 146.19095316 159.21908016 153.59591085 159.26052457 C157.51696624 159.28186058 161.43761062 159.29445231 165.35872459 159.28615379 C169.05009765 159.27861712 172.74063768 159.29441919 176.43185806 159.32806015 C178.43115864 159.34022417 180.43056174 159.32769852 182.42985535 159.31443787 C192.20420588 159.43966121 192.20420588 159.43966121 195.32099915 162.31465149 C197.48867502 165.78157359 197.44677589 167.97901701 197 172 C196.67 172.99 196.34 173.98 196 175 C196.33 175.99 196.66 176.98 197 178 C197.88978593 186.35127656 197.07697089 193.14120759 192 200 C186.615716 205.23230824 180.89688723 208.2653577 173.3125 208.4375 C166.06609206 208.28597609 160.27836865 206.31237662 155.1171875 201.09765625 C149.62633827 194.18767449 148.35675243 187.6913218 149 179 C149.33 178.01 149.66 177.02 150 176 C128.22 176 106.44 176 84 176 C84.33 176.99 84.66 177.98 85 179 C85.94736422 187.60393077 83.68509416 193.4559945 79.375 200.75 C74.10314533 205.74438864 68.26663393 208.29725234 61 208.625 C53.96108518 208.28119696 48.08552066 206.17514159 43.1171875 201.0625 C37.59659173 194.02174018 36.25271674 187.86251729 37 179 C37.433125 177.948125 37.86625 176.89625 38.3125 175.8125 C39.31290487 173.09321637 39.31290487 173.09321637 38.01953125 171.21484375 C37.55933594 170.56644531 37.09914062 169.91804687 36.625 169.25 C33.330109 164.53730742 33.15652381 160.61545782 34 155 C35.34778729 151.360155 37.14800991 148.05772016 39.0625 144.6875 C40.02443733 142.96929852 40.97420987 141.24421525 41.91015625 139.51171875 C42.33433838 138.76365967 42.75852051 138.01560059 43.19555664 137.24487305 C44.66458467 133.14541547 42.82965995 129.34002563 41.29272461 125.44677734 C38.40994987 117.67066399 36.29992968 109.6819054 34.10000801 101.69255447 C33.3018055 98.79862665 32.4960635 95.90689799 31.68797302 93.01571655 C29.39297938 84.80394821 27.10245042 76.59102827 24.83862305 68.37060547 C23.44779605 63.32235961 22.04081556 58.2788597 20.6231823 53.23807907 C20.08810093 51.32364291 19.55906688 49.40750557 19.03628731 47.48967361 C18.30581009 44.8123151 17.55487866 42.14149211 16.79907227 39.47119141 C16.58956436 38.68358429 16.38005646 37.89597717 16.16419983 37.08450317 C14.22166681 30.36501907 10.50853764 26.74298487 4.64453125 22.9921875 C3.46407227 22.22455078 3.46407227 22.22455078 2.25976562 21.44140625 C1.45216797 20.92449219 0.64457031 20.40757812 -0.1875 19.875 C-1.80950695 18.8362009 -3.42816194 17.79214419 -5.04296875 16.7421875 C-5.75477295 16.2869873 -6.46657715 15.83178711 -7.19995117 15.36279297 C-9 14 -9 14 -11 11 C-11.42255137 7.12661246 -11.56667558 4.88401391 -9.4375 1.5625 C-6.02788804 -0.62314869 -4.02054609 -0.40082759 0 0 Z M34 40 C36.57730093 50.82754357 39.59350103 61.40200319 43 72 C51.25 72 59.5 72 68 72 C66.35 61.77 64.7 51.54 63 41 C48.51046394 40.11263076 48.51046394 40.11263076 34 40 Z M79 42 C79.45375 45.279375 79.9075 48.55875 80.375 51.9375 C80.51341309 52.95191162 80.65182617 53.96632324 80.79443359 55.01147461 C80.91125488 55.84171143 81.02807617 56.67194824 81.1484375 57.52734375 C81.26364746 58.35999756 81.37885742 59.19265137 81.49755859 60.05053711 C82.18096371 64.06230443 83.11718846 68.02734807 84 72 C92.25 72 100.5 72 109 72 C109 62.43 109 52.86 109 43 C94.15 42.505 94.15 42.505 79 42 Z M125 44 C125 53.24 125 62.48 125 72 C133.58 72 142.16 72 151 72 C151.33 69.586875 151.66 67.17375 152 64.6875 C152.10441406 63.95233154 152.20882812 63.21716309 152.31640625 62.4597168 C153.0955297 56.49030173 153 51.18055632 153 45 C139.14 44.505 139.14 44.505 125 44 Z M169 46 C168.34 54.58 167.68 63.16 167 72 C174.92 72 182.84 72 191 72 C191.66 68.803125 192.32 65.60625 193 62.3125 C193.31324219 60.81456909 193.31324219 60.81456909 193.6328125 59.28637695 C193.79523438 58.48675537 193.95765625 57.68713379 194.125 56.86328125 C194.29257812 56.05157471 194.46015625 55.23986816 194.6328125 54.40356445 C195.12584655 51.58146554 195.12584655 51.58146554 195 47 C182.13 46.505 182.13 46.505 169 46 Z M48 88 C49.38000322 95.58473438 51.25048817 102.96668073 53.375 110.375 C53.81199219 111.97408203 53.81199219 111.97408203 54.2578125 113.60546875 C54.55171875 114.63027344 54.845625 115.65507812 55.1484375 116.7109375 C55.40802246 117.63181152 55.66760742 118.55268555 55.93505859 119.50146484 C57.40049397 122.93962754 59.42003763 125.32427229 62.890625 126.80859375 C65.66113596 127.05999197 68.02700614 126.61358209 70.75 126.0625 C72.5 125.70833333 74.25 125.35416667 76 125 C75.43319371 116.67969386 74.40620701 108.53065907 73 100.3125 C72.82210937 99.23033203 72.64421875 98.14816406 72.4609375 97.03320312 C72.04908269 92.15149969 72.04908269 92.15149969 70 88 C68.36527118 87.91299658 66.72685945 87.89298937 65.08984375 87.90234375 C63.60581055 87.90717773 63.60581055 87.90717773 62.09179688 87.91210938 C60.53041992 87.92467773 60.53041992 87.92467773 58.9375 87.9375 C57.37032227 87.94426758 57.37032227 87.94426758 55.77148438 87.95117188 C53.1809334 87.96300087 50.59049441 87.97948311 48 88 Z M87 88 C87.62974489 95.9878168 88.69470958 103.7949143 90.0625 111.6875 C90.24876953 112.78255859 90.43503906 113.87761719 90.62695312 115.00585938 C91.0808824 117.67123898 91.5386164 120.33590249 92 123 C94.64624284 122.85978195 97.29184578 122.71310224 99.9375 122.5625 C100.69224609 122.52318359 101.44699219 122.48386719 102.22460938 122.44335938 C105.91944187 122.55961976 105.91944187 122.55961976 109 121 C109.08843793 118.55169574 109.11528752 116.13179401 109.09765625 113.68359375 C109.0962413 112.95253922 109.09482635 112.22148468 109.09336853 111.46827698 C109.08775408 109.12464368 109.07519922 106.78110461 109.0625 104.4375 C109.05748686 102.85221492 109.05292363 101.26692834 109.04882812 99.68164062 C109.03862921 95.78769457 109.01905687 91.89395323 109 88 C101.74 88 94.48 88 87 88 Z M125 88 C125 98.23 125 108.46 125 119 C127.701875 118.855625 130.40375 118.71125 133.1875 118.5625 C134.02949951 118.51939697 134.87149902 118.47629395 135.73901367 118.43188477 C136.75572144 118.3747229 136.75572144 118.3747229 137.79296875 118.31640625 C138.4789917 118.27974854 139.16501465 118.24309082 139.87182617 118.20532227 C142.29292381 117.97173925 144.62321639 117.51021864 147 117 C147.42791849 113.03075249 147.85515089 109.06143181 148.28173828 105.09204102 C148.42705576 103.74078355 148.57256307 102.38954649 148.71826172 101.03833008 C148.92725341 99.0998255 149.13551316 97.16124206 149.34375 95.22265625 C149.53227539 93.47094116 149.53227539 93.47094116 149.72460938 91.68383789 C149.92515073 89.84513484 149.92515073 89.84513484 150 88 C141.75 88 133.5 88 125 88 Z M166 88 C165.00567715 90.98296854 164.71277619 93.41901995 164.46484375 96.54296875 C164.37783203 97.61611328 164.29082031 98.68925781 164.20117188 99.79492188 C164.11416016 100.91447266 164.02714844 102.03402344 163.9375 103.1875 C163.84662109 104.31865234 163.75574219 105.44980469 163.66210938 106.61523438 C163.43806386 109.40990736 163.21749856 112.20481111 163 115 C164.59812194 114.86341643 166.1956786 114.7202084 167.79296875 114.57421875 C168.68266357 114.49518311 169.5723584 114.41614746 170.48901367 114.3347168 C175.72550523 113.63668763 179.63624185 111.24531687 182.8984375 107.078125 C185.92822378 101.36235798 187 94.40179492 187 88 C180.07 88 173.14 88 166 88 Z M55 178 C52.65450326 181.51824511 52.42008597 182.85775694 53 187 C55.48602449 190.36344489 56.91425523 191.80057749 61.0625 192.5625 C64.71255579 191.86355315 65.85564611 191.01797955 68 188 C69.16448881 185.09648876 69.16448881 185.09648876 69 182 C67.05673841 178.50212914 65.8359715 177.26124109 62 176.0625 C58.86841304 175.9972586 57.52193396 176.1986186 55 178 Z M168.1875 177.5625 C165.56318831 180.48673302 165.08127687 182.09871003 165 186 C166.12018899 189.36056696 166.94534099 189.96356066 170 192 C172.9149255 192.5838196 172.9149255 192.5838196 176 192 C179.36344489 189.51397551 180.80057749 188.08574477 181.5625 183.9375 C180.86355315 180.28744421 180.01797955 179.14435389 177 177 C173.1833941 175.70072991 171.74211119 175.58771601 168.1875 177.5625 Z " fill="#000000" transform="translate(147,120)"/>
<path d="M0 0 C1.04542969 -0.01998047 2.09085937 -0.03996094 3.16796875 -0.06054688 C4.17472656 -0.05990234 5.18148438 -0.05925781 6.21875 -0.05859375 C7.13591797 -0.06044678 8.05308594 -0.0622998 8.99804688 -0.06420898 C12.31356146 0.60064098 13.37410327 1.84388269 15.5 4.4375 C16.00139666 6.82765198 16.00139666 6.82765198 16.00336456 9.54125977 C16.01379555 10.57784225 16.02422654 11.61442474 16.03497362 12.68241882 C16.02605073 13.81975967 16.01712785 14.95710052 16.00793457 16.12890625 C16.01729451 17.94289665 16.01729451 17.94289665 16.02684355 19.79353333 C16.04005546 23.15195474 16.03527762 26.50948373 16.02289867 29.86785126 C16.01386269 33.48891805 16.02781065 37.10990584 16.03881836 40.73095703 C16.05662379 47.82518078 16.05275465 54.91923545 16.0411678 62.01346588 C16.03214167 67.77803436 16.0309059 73.54255539 16.03526306 79.30712891 C16.03587599 80.12693898 16.03648893 80.94674906 16.03712043 81.79140186 C16.03839931 83.45672482 16.03969616 85.12204776 16.0410108 86.78737068 C16.05242252 102.41056077 16.03929363 118.03365704 16.01780933 133.65683174 C15.9999378 147.06814315 16.00304174 160.47931609 16.02148438 173.890625 C16.04288065 189.45713075 16.05132383 205.02355423 16.03903532 220.59007263 C16.0377611 222.24933877 16.03650361 223.90860493 16.03526306 225.56787109 C16.03433741 226.79252185 16.03433741 226.79252185 16.03339306 228.04191303 C16.02993642 233.80091129 16.03577524 239.55985746 16.04518127 245.31884766 C16.05638886 252.33523347 16.05338749 259.35144024 16.0320583 266.36780548 C16.02153099 269.94910031 16.01745426 273.53009641 16.03065491 277.11138916 C16.04473472 280.98979371 16.02794652 284.86770691 16.00793457 288.74609375 C16.0213189 290.45210503 16.0213189 290.45210503 16.03497362 292.19258118 C16.02454263 293.22916367 16.01411164 294.26574615 16.00336456 295.33374023 C16.00271515 296.2292308 16.00206574 297.12472137 16.00139666 298.04734802 C15.31039863 301.34132748 14.22126806 302.48048348 11.5 304.4375 C8.49429321 304.93889666 8.49429321 304.93889666 4.89697266 304.94086456 C4.23171318 304.94667833 3.5664537 304.95249209 2.88103485 304.95848203 C0.64167921 304.97313299 -1.59658903 304.9591743 -3.8359375 304.94543457 C-5.45346641 304.95004151 -7.07099115 304.95639302 -8.68850708 304.96434355 C-13.14127752 304.98108864 -17.59370638 304.97276711 -22.04647827 304.96039867 C-26.84546255 304.95137162 -31.64438689 304.96530623 -36.44335938 304.97631836 C-45.84766272 304.99413329 -55.2518386 304.99025038 -64.656147 304.9786678 C-72.29714253 304.96964543 -79.93810225 304.96840428 -87.57910156 304.97276306 C-88.66534632 304.97337599 -89.75159107 304.97398893 -90.87075233 304.97462043 C-93.07722729 304.97589929 -95.28370223 304.97719615 -97.49017715 304.9785108 C-118.19513015 304.98992531 -138.90001238 304.97678923 -159.60495377 304.95530933 C-177.38250463 304.93743757 -195.15995102 304.94054143 -212.9375 304.95898438 C-233.56682049 304.98037571 -254.19607891 304.98882659 -274.82540894 304.97653532 C-277.02390543 304.97526108 -279.22240193 304.9740036 -281.42089844 304.97276306 C-282.50268686 304.97214596 -283.58447529 304.97152886 -284.69904518 304.97089306 C-292.33355826 304.96743494 -299.96803207 304.97327843 -307.60253906 304.98268127 C-316.9026114 304.99388336 -326.20254864 304.990899 -335.50260544 304.9695583 C-340.25042916 304.95902372 -344.9980274 304.95496691 -349.74584961 304.96815491 C-354.08838345 304.98003498 -358.43048184 304.97358922 -362.77297592 304.9522447 C-364.34760989 304.94775993 -365.92228031 304.95008668 -367.49689102 304.95974785 C-369.63078109 304.97184072 -371.76316254 304.95951212 -373.89697266 304.94086456 C-375.08408844 304.94021515 -376.27120422 304.93956574 -377.49429321 304.93889666 C-381.11144889 304.33550122 -382.28208923 303.29893606 -384.5 300.4375 C-385.06640625 298.4375 -385.06640625 298.4375 -385.0625 296.4375 C-385.08441406 295.7775 -385.10632813 295.1175 -385.12890625 294.4375 C-384.13823133 291.28703069 -382.20599128 290.23493024 -379.5 288.4375 C-376.44884843 287.94070601 -376.44884843 287.94070601 -372.9657774 287.94530869 C-372.32011455 287.94069331 -371.6744517 287.93607793 -371.00922331 287.93132269 C-368.84254065 287.9207225 -366.67704361 287.93868725 -364.51042175 287.95648193 C-362.94280431 287.95473777 -361.37518799 287.9512357 -359.80757791 287.94612527 C-355.4975291 287.93717099 -351.18787704 287.95319501 -346.87787879 287.97323751 C-342.23102488 287.99049166 -337.58419382 287.98466726 -332.93731689 287.98162842 C-324.88552221 287.97952977 -316.83385706 287.99209281 -308.78209496 288.01457977 C-297.14058246 288.04707106 -285.49913267 288.05750385 -273.85757975 288.06253174 C-254.97052871 288.0712889 -236.08354673 288.09791591 -217.1965332 288.13574219 C-198.84822937 288.17245137 -180.49994439 288.20072263 -162.15161133 288.21777344 C-161.00931767 288.21884543 -159.86702401 288.21991742 -158.69011539 288.22102189 C-149.75679128 288.22933945 -140.82346677 288.23716719 -131.89014208 288.24484015 C-88.09336468 288.28258325 -44.2967601 288.3630544 -0.5 288.4375 C-0.5 198.6775 -0.5 108.9175 -0.5 16.4375 C-3.47 16.4375 -6.44 16.4375 -9.5 16.4375 C-12.46857587 15.17427623 -13.94224928 14.17271686 -15.875 11.625 C-16.75861973 8.53233095 -16.41373769 6.50504797 -15.5 3.4375 C-10.99390495 -0.89062215 -5.89584201 -0.03998413 0 0 Z " fill="#000000" transform="translate(464.5,71.5625)"/>
<path d="M0 0 C0.66525948 -0.00581376 1.33051895 -0.01162753 2.01593781 -0.01761746 C4.25529344 -0.03226843 6.49356169 -0.01830973 8.73291016 -0.00457001 C10.35043907 -0.00917694 11.9679638 -0.01552846 13.58547974 -0.02347898 C18.03825017 -0.04022408 22.49067903 -0.03190255 26.94345093 -0.01953411 C31.74243521 -0.01050705 36.54135955 -0.02444167 41.34033203 -0.0354538 C50.74463538 -0.05326873 60.14881125 -0.04938581 69.55311966 -0.03780323 C77.19411518 -0.02878086 84.8350749 -0.02753972 92.47607422 -0.0318985 C93.56231897 -0.03251143 94.64856373 -0.03312436 95.76772499 -0.03375587 C97.97419994 -0.03503473 100.18067488 -0.03633158 102.38714981 -0.03764623 C123.0921028 -0.04906074 143.79698503 -0.03592467 164.50192642 -0.01444477 C182.27947728 0.00342699 200.05692368 0.00032313 217.83447266 -0.01811981 C238.46379314 -0.03951115 259.09305156 -0.04796203 279.72238159 -0.03567076 C281.92087808 -0.03439652 284.11937458 -0.03313904 286.31787109 -0.0318985 C287.94055373 -0.03097285 287.94055373 -0.03097285 289.59601784 -0.03002849 C297.23053091 -0.02657038 304.86500472 -0.03241386 312.49951172 -0.04181671 C321.79958405 -0.05301879 331.0995213 -0.05003443 340.39957809 -0.02869374 C345.14740182 -0.01815915 349.89500006 -0.01410235 354.64282227 -0.02729034 C358.9853561 -0.03917042 363.3274545 -0.03272466 367.66994858 -0.01138014 C369.24458254 -0.00689537 370.81925296 -0.00922212 372.39386368 -0.01888329 C374.52775375 -0.03097616 376.6601352 -0.01864756 378.79394531 0 C379.9810611 0.00064941 381.16817688 0.00129882 382.39126587 0.00196791 C386.0338482 0.60960489 387.2239202 1.55964182 389.39697266 4.50336456 C389.86615948 8.25685918 389.92833647 10.5418491 388.08447266 13.87836456 C384.84144349 17.00128154 381.39340375 16.62782548 377.12446308 16.62641239 C376.4827963 16.62756624 375.84112951 16.62872008 375.18001828 16.62990889 C373.01527559 16.63257005 370.85060626 16.62805749 368.68586731 16.62361908 C367.12410343 16.62405488 365.56233962 16.62492996 364.0005762 16.62620825 C359.69755006 16.6284514 355.39454866 16.62443435 351.09152567 16.61943018 C346.45554327 16.61512332 341.81956233 16.61657228 337.18357849 16.61733246 C329.1476235 16.61785754 321.1116766 16.61471235 313.07572365 16.60909462 C301.45699521 16.60097753 289.83827069 16.59836418 278.21953972 16.59710663 C259.37023455 16.59491644 240.52093369 16.58825724 221.67163086 16.57880402 C203.35815451 16.56962905 185.04467935 16.56256009 166.73120117 16.5582962 C165.02148295 16.55789421 165.02148295 16.55789421 163.27722496 16.55748409 C154.3635278 16.55540474 145.44983061 16.55344779 136.53613341 16.55152953 C92.82307586 16.54209092 49.11002912 16.52197378 5.39697266 16.50336456 C5.39697266 106.26336456 5.39697266 196.02336456 5.39697266 288.50336456 C8.69697266 288.50336456 11.99697266 288.50336456 15.39697266 288.50336456 C18.68054638 290.3126807 19.9515994 291.44560307 21.39697266 294.87836456 C21.39697266 298.41076458 20.22628814 300.52225785 18.39697266 303.50336456 C14.40889173 305.49740503 9.40701739 304.77595214 5.02197266 304.81586456 C3.96751953 304.84486847 2.91306641 304.87387238 1.82666016 304.90375519 C0.81087891 304.91213409 -0.20490234 304.920513 -1.25146484 304.92914581 C-2.64631104 304.95101959 -2.64631104 304.95101959 -4.06933594 304.97333527 C-7.42613536 304.35068746 -8.4606198 303.12216209 -10.60302734 300.50336456 C-11.104424 298.11321259 -11.104424 298.11321259 -11.10639191 295.3996048 C-11.1168229 294.36302231 -11.12725389 293.32643982 -11.13800097 292.25844574 C-11.12907808 291.12110489 -11.12015519 289.98376404 -11.11096191 288.81195831 C-11.11720188 287.60263138 -11.12344184 286.39330444 -11.12987089 285.14733124 C-11.14308281 281.78890983 -11.13830497 278.43138083 -11.12592602 275.07301331 C-11.11689003 271.45194651 -11.130838 267.83095872 -11.1418457 264.20990753 C-11.15965113 257.11568378 -11.155782 250.02162911 -11.14419514 242.92739868 C-11.13516902 237.1628302 -11.13393325 231.39830917 -11.13829041 225.63373566 C-11.13890334 224.81392558 -11.13951627 223.99411551 -11.14014778 223.1494627 C-11.14142665 221.48413975 -11.1427235 219.81881681 -11.14403814 218.15349388 C-11.15544986 202.53030379 -11.14232097 186.90720752 -11.12083668 171.28403282 C-11.10296514 157.87272141 -11.10606908 144.46154848 -11.12451172 131.05023956 C-11.145908 115.48373381 -11.15435117 99.91731033 -11.14206266 84.35079193 C-11.14078844 82.69152579 -11.13953096 81.03225964 -11.13829041 79.37299347 C-11.1376733 78.55655963 -11.1370562 77.74012579 -11.1364204 76.89895153 C-11.13296376 71.13995327 -11.13880258 65.3810071 -11.14820862 59.62201691 C-11.15941621 52.6056311 -11.15641483 45.58942433 -11.13508564 38.57305908 C-11.12455834 34.99176426 -11.1204816 31.41076816 -11.13368225 27.8294754 C-11.14776206 23.95107085 -11.13097386 20.07315765 -11.11096191 16.19477081 C-11.1198848 15.05742996 -11.12880769 13.92008911 -11.13800097 12.74828339 C-11.12756998 11.7117009 -11.11713899 10.67511841 -11.10639191 9.60712433 C-11.1057425 8.71163376 -11.10509309 7.81614319 -11.104424 6.89351654 C-9.80898092 0.71815457 -5.65962956 0.00309609 0 0 Z " fill="#000000" transform="translate(42.60302734375,71.49663543701172)"/>
</svg>
